<svg xmlns="http://www.w3.org/2000/svg" xmlns:xlink="http://www.w3.org/1999/xlink" width="158.069" height="19.563" viewBox="0 0 158.069 19.563">
  <defs>
    <linearGradient id="linear-gradient" x1="0.253" y1="1.366" x2="1.699" y2="1.95" gradientUnits="objectBoundingBox">
      <stop offset="0" stop-color="#535c91"/>
      <stop offset="1" stop-color="#2a2e49"/>
    </linearGradient>
  </defs>
  <path id="Path_5" data-name="Path 5" d="M-65.114-.647a12.005,12.005,0,0,1-5.205.965,8.774,8.774,0,0,1-6.589-2.463,9,9,0,0,1-2.4-6.563,9.619,9.619,0,0,1,2.7-7.084,9.436,9.436,0,0,1,7-2.717,13.094,13.094,0,0,1,4.494.673v3.948a7.963,7.963,0,0,0-4.164-1.092,5.524,5.524,0,0,0-4.139,1.612A5.983,5.983,0,0,0-74.991-9a5.868,5.868,0,0,0,1.485,4.208,5.247,5.247,0,0,0,4,1.568,8.53,8.53,0,0,0,4.393-1.168Zm8.976.965A6.988,6.988,0,0,1-61.249-1.5a6.6,6.6,0,0,1-1.86-4.945,6.6,6.6,0,0,1,1.93-5.046,7.291,7.291,0,0,1,5.218-1.822A6.9,6.9,0,0,1-50.883-11.5a6.476,6.476,0,0,1,1.841,4.818,6.874,6.874,0,0,1-1.9,5.116A7.066,7.066,0,0,1-56.139.317Zm.1-10.562a2.676,2.676,0,0,0-2.209.978A4.311,4.311,0,0,0-59.033-6.5q0,3.745,3.021,3.745,2.882,0,2.882-3.847Q-53.13-10.245-56.037-10.245Zm8.747,9.9v-3.25a8.541,8.541,0,0,0,1.974.889,6.545,6.545,0,0,0,1.86.292A3.989,3.989,0,0,0-41.774-2.7a.943.943,0,0,0,.616-.889.822.822,0,0,0-.279-.635,2.6,2.6,0,0,0-.717-.444,8.14,8.14,0,0,0-.958-.343q-.521-.152-1-.343a9.609,9.609,0,0,1-1.365-.628,3.945,3.945,0,0,1-.99-.781,3.069,3.069,0,0,1-.609-1.028,4.1,4.1,0,0,1-.209-1.384,3.562,3.562,0,0,1,.476-1.879,3.889,3.889,0,0,1,1.27-1.289,5.8,5.8,0,0,1,1.815-.736,9.466,9.466,0,0,1,2.126-.235,11.8,11.8,0,0,1,1.752.133A13.076,13.076,0,0,1-38.1-12.8v3.1a6.33,6.33,0,0,0-1.631-.667,6.882,6.882,0,0,0-1.708-.222,3.783,3.783,0,0,0-.743.07,2.446,2.446,0,0,0-.616.2,1.131,1.131,0,0,0-.419.343.789.789,0,0,0-.152.476.879.879,0,0,0,.229.609,1.985,1.985,0,0,0,.6.438,5.89,5.89,0,0,0,.819.33q.451.146.9.3a11.637,11.637,0,0,1,1.447.609,4.627,4.627,0,0,1,1.111.774A3.041,3.041,0,0,1-37.559-5.4a3.7,3.7,0,0,1,.248,1.422A3.709,3.709,0,0,1-37.813-2,4.015,4.015,0,0,1-39.146-.667a6.045,6.045,0,0,1-1.917.749,10.627,10.627,0,0,1-2.253.235A11.617,11.617,0,0,1-47.29-.343ZM-14.358,0h-4V-7.414q0-2.831-2.082-2.831a1.913,1.913,0,0,0-1.612.851,3.5,3.5,0,0,0-.622,2.12V0h-4.012V-7.49q0-2.755-2.044-2.755a1.959,1.959,0,0,0-1.644.813,3.575,3.575,0,0,0-.616,2.209V0H-35V-13h4.012v2.031h.051a4.8,4.8,0,0,1,1.746-1.695,4.8,4.8,0,0,1,2.457-.654,3.743,3.743,0,0,1,3.771,2.425A4.809,4.809,0,0,1-18.6-13.317q4.24,0,4.24,5.23Zm9.369.317A6.988,6.988,0,0,1-10.1-1.5a6.6,6.6,0,0,1-1.86-4.945,6.6,6.6,0,0,1,1.93-5.046,7.291,7.291,0,0,1,5.218-1.822A6.9,6.9,0,0,1,.267-11.5,6.476,6.476,0,0,1,2.107-6.678a6.874,6.874,0,0,1-1.9,5.116A7.066,7.066,0,0,1-4.989.317Zm.1-10.562A2.676,2.676,0,0,0-7.1-9.268,4.311,4.311,0,0,0-7.884-6.5q0,3.745,3.021,3.745,2.882,0,2.882-3.847Q-1.98-10.245-4.888-10.245Zm33.808-7.96L24.108,0H19.563L16.542-11.68a9.739,9.739,0,0,1-.292-2.044H16.2a12.418,12.418,0,0,1-.33,2.044L12.771,0H8.036L3.25-18.205H7.731L10.3-6.081A14.473,14.473,0,0,1,10.537-4h.076a10.078,10.078,0,0,1,.368-2.133l3.3-12.073h4.393L21.658-5.979a14.97,14.97,0,0,1,.292,1.955H22a13.107,13.107,0,0,1,.267-2.031l2.514-12.149ZM40.612,0h-3.8V-1.866h-.051A4.237,4.237,0,0,1,32.894.317,4.05,4.05,0,0,1,29.917-.755a3.844,3.844,0,0,1-1.085-2.863q0-3.783,4.481-4.367l3.529-.47q0-2.133-2.311-2.133A7.887,7.887,0,0,0,30.113-9.2v-3.021a9.939,9.939,0,0,1,2.292-.762,12.046,12.046,0,0,1,2.647-.33q5.561,0,5.561,5.548ZM36.842-5.281v-.876l-2.361.3q-1.955.254-1.955,1.765A1.458,1.458,0,0,0,33-2.964a1.829,1.829,0,0,0,1.289.438,2.375,2.375,0,0,0,1.841-.781A2.82,2.82,0,0,0,36.842-5.281Zm14.8,5.129a5.93,5.93,0,0,1-2.679.47q-4.24,0-4.24-4.405v-5.954H42.618V-13h2.107v-2.806l4-1.143V-13h2.92v2.958h-2.92v5.256q0,2.031,1.612,2.031a2.718,2.718,0,0,0,1.308-.368ZM63.654-.47a7.932,7.932,0,0,1-3.923.787A6.634,6.634,0,0,1,54.882-1.5a6.27,6.27,0,0,1-1.854-4.685,6.907,6.907,0,0,1,1.987-5.224,7.343,7.343,0,0,1,5.313-1.911,6.817,6.817,0,0,1,3.326.609v3.4a4.573,4.573,0,0,0-2.806-.939,3.7,3.7,0,0,0-2.736,1.009A3.766,3.766,0,0,0,57.1-6.449a3.7,3.7,0,0,0,.965,2.71,3.546,3.546,0,0,0,2.653.984,5.3,5.3,0,0,0,2.933-.939ZM78.762,0h-4V-7.389q0-2.856-2.082-2.856a2.131,2.131,0,0,0-1.727.8,3.085,3.085,0,0,0-.66,2.031V0H66.282V-19.246h4.012v8.176h.051a4.558,4.558,0,0,1,4-2.247q4.418,0,4.418,5.332Z" transform="translate(79.308 19.246)" fill="url(#linear-gradient)"/>
</svg>
